<svg width="45" height="45" viewBox="0 0 45 45" fill="none" xmlns="http://www.w3.org/2000/svg">
<path d="M11.292 24.8408L22.5 33.125L12.5 20.125L11.1148 24.2806C11.0463 24.486 11.1178 24.7121 11.292 24.8408Z" fill="#B6B6B6"/>
<path d="M18 20.125L22.5 33.125L12.5 20.125H18Z" fill="#989898"/>
<path d="M14.9654 12.7288L12.5 20.125H18L15.5346 12.7288C15.4434 12.4553 15.0566 12.4553 14.9654 12.7288Z" fill="#7B7B7B"/>
<path d="M33.708 24.8408L22.5 33.125L32.5 20.125L33.8852 24.2806C33.9537 24.486 33.8822 24.7121 33.708 24.8408Z" fill="#B6B6B6"/>
<path d="M27 20.125L22.5 33.125L32.5 20.125H27Z" fill="#989898"/>
<path d="M30.0346 12.7288L32.5 20.125H27L29.4654 12.7288C29.5566 12.4553 29.9434 12.4553 30.0346 12.7288Z" fill="#7B7B7B"/>
<path d="M27 20.125L22.5 33.125L18 20.125H27Z" fill="#7B7B7B"/>
</svg>
