<svg width="20" height="20" viewBox="0 0 20 20" fill="none" xmlns="http://www.w3.org/2000/svg">
<path d="M10.0016 2.0835C9.61823 2.0835 9.22657 2.11683 8.8349 2.20016C6.5349 2.64183 4.70157 4.50016 4.26823 6.80016C3.86823 8.97516 4.66823 10.9752 6.11823 12.2668C6.47657 12.5835 6.66823 13.0252 6.66823 13.4918V15.4168C6.66823 16.3335 7.41823 17.0835 8.3349 17.0835H8.56823C8.8599 17.5835 9.3849 17.9168 10.0016 17.9168C10.6182 17.9168 11.1516 17.5835 11.4349 17.0835H11.6682C12.5849 17.0835 13.3349 16.3335 13.3349 15.4168V13.4918C13.3349 13.0335 13.5182 12.5835 13.8682 12.2752C15.0766 11.2085 15.8349 9.65016 15.8349 7.91683C15.8349 4.69183 13.2266 2.0835 10.0016 2.0835ZM11.6682 15.4168H8.3349V14.5835H11.6682V15.4168ZM11.6682 13.7502H8.3349V12.9168H11.6682V13.7502ZM10.4182 9.09183V11.2502H9.5849V9.09183L8.0599 7.57516L8.65157 6.9835L10.0016 8.3335L11.3516 6.9835L11.9432 7.57516L10.4182 9.09183Z" fill="black"/>
</svg>
