<svg width="24" height="24" viewBox="0 0 24 24" fill="none" xmlns="http://www.w3.org/2000/svg">
<path fill-rule="evenodd" clip-rule="evenodd" d="M15.4851 19.8208C15.9983 19.9648 16.3107 19.9036 16.5001 19.7942C16.6895 19.6848 16.8987 19.445 17.0306 18.9284C17.1636 18.4075 17.1922 17.6884 17.0737 16.7949C17.0241 16.421 16.9499 16.0255 16.8513 15.6127C16.0665 15.7929 15.2168 15.9307 14.3203 16.0187C13.7959 16.7511 13.2517 17.418 12.7032 18.0077C13.0114 18.2994 13.3168 18.5614 13.6158 18.7913C14.3303 19.3407 14.9674 19.6754 15.4851 19.8208ZM12.0001 17.2952C12.3362 16.932 12.6724 16.5359 13.0044 16.1099C12.6741 16.1235 12.339 16.1305 12 16.1305C11.6611 16.1305 11.3261 16.1235 10.9958 16.1099C11.3278 16.536 11.664 16.932 12.0001 17.2952ZM15.0572 14.9247C15.5922 14.8502 16.1033 14.7571 16.5858 14.6476C16.4394 14.1749 16.2645 13.6857 16.0615 13.1852C15.9081 13.478 15.7466 13.7717 15.5771 14.0652C15.4077 14.3588 15.2341 14.6455 15.0572 14.9247ZM15.5372 12C15.2899 12.5164 15.0144 13.0399 14.7111 13.5652C14.4078 14.0906 14.0921 14.5909 13.7686 15.0632C13.1978 15.1072 12.6066 15.1305 12 15.1305C11.3934 15.1305 10.8024 15.1072 10.2316 15.0633C9.90806 14.5909 9.59237 14.0906 9.28905 13.5652C8.98575 13.0399 8.71032 12.5163 8.463 12C8.71032 11.4837 8.98575 10.9601 9.28905 10.4348C9.59236 9.90947 9.90803 9.40916 10.2315 8.9368C10.8023 8.89282 11.3934 8.8696 12 8.8696C12.6067 8.8696 13.1978 8.89283 13.7687 8.93682C14.0922 9.40916 14.4078 9.90944 14.7111 10.4348C15.0144 10.9601 15.2899 11.4836 15.5372 12ZM16.0615 10.8148C15.9081 10.522 15.7466 10.2283 15.5771 9.93476C15.4077 9.64122 15.2341 9.35458 15.0572 9.07536C15.5922 9.14982 16.1033 9.243 16.5858 9.35247C16.4394 9.82509 16.2645 10.3143 16.0615 10.8148ZM16.8513 8.38735C16.0665 8.20716 15.2168 8.06933 14.3203 7.98136C13.7959 7.24896 13.2517 6.58198 12.7032 5.99235C13.0114 5.7006 13.3168 5.43864 13.6158 5.20872C14.3303 4.65932 14.9674 4.32457 15.4851 4.17925C15.9983 4.03517 16.3107 4.09644 16.5001 4.2058C16.6895 4.31517 16.8987 4.55501 17.0306 5.07156C17.1636 5.59252 17.1922 6.31163 17.0737 7.20512C17.0241 7.57904 16.9499 7.97452 16.8513 8.38735ZM17.819 8.64051C18.4358 6.07335 18.1992 4.03209 17.0001 3.33978C15.801 2.64747 13.9149 3.46321 12.0001 5.28092C10.0853 3.46317 8.19921 2.6474 7.00009 3.33972C5.80096 4.03204 5.5644 6.0733 6.1812 8.64046C3.64953 9.38988 2 10.6154 2 12C2 13.3847 3.64952 14.6102 6.18119 15.3596C5.5644 17.9267 5.80097 19.968 7.00009 20.6603C8.19921 21.3526 10.0853 20.5368 12.0001 18.7191C13.9149 20.5368 15.801 21.3525 17.0001 20.6602C18.1992 19.9679 18.4358 17.9267 17.819 15.3595C20.3506 14.6101 22 13.3846 22 12C22 10.6154 20.3505 9.38993 17.819 8.64051ZM17.5544 9.6051C17.318 10.3749 17.0125 11.1797 16.6405 12C17.0125 12.8204 17.318 13.6252 17.5544 14.395C17.9612 14.2739 18.3407 14.1404 18.6893 13.9964C19.5224 13.6523 20.1308 13.268 20.5155 12.8923C20.8969 12.5199 21 12.2188 21 12C21 11.7813 20.8969 11.4802 20.5155 11.1077C20.1308 10.7321 19.5224 10.3477 18.6893 10.0036C18.3407 9.85965 17.9612 9.72616 17.5544 9.6051ZM7.14883 15.6127C7.93371 15.7929 8.78345 15.9308 9.67995 16.0187C10.2044 16.7511 10.7486 17.4181 11.297 18.0077C10.9888 18.2994 10.6834 18.5614 10.3844 18.7913C9.66985 19.3407 9.03276 19.6755 8.5151 19.8208C8.00183 19.9649 7.68951 19.9036 7.50009 19.7943C7.31066 19.6849 7.10145 19.4451 6.96959 18.9285C6.8366 18.4075 6.80796 17.6884 6.9265 16.7949C6.97611 16.421 7.05028 16.0256 7.14883 15.6127ZM7.41434 14.6476C7.56082 14.175 7.73569 13.6857 7.9387 13.1852C8.09206 13.478 8.25354 13.7716 8.42302 14.0652C8.59253 14.3588 8.76609 14.6455 8.94304 14.9247C8.40806 14.8503 7.89691 14.7571 7.41434 14.6476ZM7.35972 12C6.98766 12.8204 6.68215 13.6252 6.44577 14.395C6.03894 14.2739 5.65934 14.1404 5.31069 13.9964C4.47764 13.6523 3.86919 13.268 3.48452 12.8923C3.1031 12.5199 3 12.2188 3 12C3 11.7813 3.1031 11.4802 3.48452 11.1077C3.86919 10.7321 4.47764 10.3477 5.31069 10.0036C5.65934 9.85962 6.03895 9.72612 6.44578 9.60505C6.68216 10.3749 6.98767 11.1796 7.35972 12ZM7.9387 10.8148C8.09206 10.522 8.25354 10.2284 8.42302 9.93481C8.59251 9.64125 8.76607 9.35458 8.94301 9.07533C8.40804 9.14978 7.89691 9.24297 7.41436 9.35243C7.56083 9.82507 7.73569 10.3143 7.9387 10.8148ZM10.9958 7.89016C11.3261 7.87656 11.6611 7.8696 12 7.8696C12.339 7.8696 12.6741 7.87656 13.0044 7.89017C12.6725 7.46409 12.3362 7.06803 12.0001 6.70485C11.664 7.06802 11.3278 7.46409 10.9958 7.89016ZM11.2971 5.99235C10.7486 6.58197 10.2043 7.24894 9.6799 7.98134C8.78343 8.0693 7.93371 8.20712 7.14885 8.38731C7.05029 7.97447 6.97611 7.57899 6.9265 7.20506C6.80796 6.31158 6.8366 5.59246 6.96959 5.0715C7.10145 4.55495 7.31066 4.31511 7.50009 4.20575C7.68951 4.09638 8.00183 4.03512 8.5151 4.1792C9.03276 4.32451 9.66985 4.65927 10.3844 5.20867C10.6834 5.43859 10.9888 5.70057 11.2971 5.99235Z" fill="#02D9FF"/>
<circle cx="12" cy="12" r="2" fill="#02D9FF"/>
</svg>
