<svg width="45" height="45" viewBox="0 0 45 45" fill="none" xmlns="http://www.w3.org/2000/svg">
<path d="M14.167 14.1667C14.167 11.8655 16.0325 10 18.3337 10H22.5003V18.3333H18.3337C16.0325 18.3333 14.167 16.4679 14.167 14.1667V14.1667Z" fill="#F24E1E"/>
<path d="M14.167 22.4997C14.167 20.1985 16.0325 18.333 18.3337 18.333H22.5003V26.6663H18.3337C16.0325 26.6663 14.167 24.8009 14.167 22.4997V22.4997Z" fill="#A259FF"/>
<path d="M14.167 30.8337C14.167 28.5325 16.0325 26.667 18.3337 26.667H22.5003V30.8337C22.5003 33.1348 20.6348 35.0003 18.3337 35.0003V35.0003C16.0325 35.0003 14.167 33.1348 14.167 30.8337V30.8337Z" fill="#0ACF83"/>
<path d="M22.5 10H26.6667C28.9679 10 30.8333 11.8655 30.8333 14.1667V14.1667C30.8333 16.4679 28.9679 18.3333 26.6667 18.3333H22.5V10Z" fill="#FF7262"/>
<rect x="22.5" y="18.333" width="8.33333" height="8.33333" rx="4.16667" fill="#1ABCFE"/>
</svg>
