<svg width="45" height="45" viewBox="0 0 45 45" fill="none" xmlns="http://www.w3.org/2000/svg">
<path d="M19.9291 10.1964C16.5199 10.9565 13.7255 12.8456 11.8029 15.7071C8.43842 20.7482 9.10908 27.5108 13.4013 31.8254C14.6868 33.122 16.6429 34.3739 18.1183 34.8546C18.6661 35.0334 18.7331 35.0334 18.979 34.8657C19.2473 34.6869 19.2585 34.6422 19.2585 33.3567V32.0378L18.2748 32.0937C17.1235 32.1495 16.2293 31.9483 15.6928 31.4901C15.5028 31.3336 15.1339 30.797 14.8768 30.3052C14.452 29.4781 14.1391 29.098 13.2672 28.3268C12.9766 28.0697 12.9654 28.0585 13.1666 27.9132C13.6472 27.5555 14.6197 27.902 15.2345 28.6397C16.3076 29.9475 16.7211 30.294 17.3359 30.4282C17.8836 30.5399 18.3866 30.4952 19.1467 30.2717C19.2473 30.2381 19.3814 30.0034 19.4485 29.7351C19.5156 29.4781 19.6944 29.0868 19.8397 28.8745L20.108 28.4832L19.2026 28.3044C17.3024 27.9132 16.1287 27.2313 15.3574 26.0688C14.6421 24.9958 14.4073 24.068 14.3962 22.3355C14.3962 20.7035 14.575 20.0329 15.2792 19.1163C15.5922 18.7139 15.6257 18.5909 15.5363 18.3562C15.3686 17.9538 15.4133 16.2548 15.5922 15.7406C15.7375 15.3606 15.8157 15.2935 16.1175 15.26C16.6205 15.2041 17.5595 15.5282 18.5096 16.0648L19.3255 16.5342L20.0409 16.3666C21.0581 16.1318 24.1096 16.143 25.0262 16.3666L25.7192 16.5454L26.3675 16.1542C27.2282 15.64 28.3236 15.2376 28.8713 15.2376C29.3073 15.2376 29.3073 15.2488 29.4861 15.8189C29.6761 16.4783 29.7097 17.6744 29.542 18.2444C29.4526 18.5798 29.4749 18.6804 29.7208 19.0045C30.9392 20.6141 31.0734 23.2856 30.045 25.4764C29.352 26.9184 27.8877 27.9244 25.9204 28.2932L24.9815 28.4721L25.328 29.0868L25.6857 29.7128L25.7192 32.2054L25.7639 34.6981L26.0434 34.8769C26.3005 35.0446 26.3563 35.0446 26.8929 34.8546C27.7871 34.5528 29.3184 33.7256 30.1568 33.0885C35.1421 29.3551 36.7517 22.6596 33.9907 17.0931C32.37 13.818 29.3073 11.303 25.7975 10.3641C24.2661 9.96171 21.3822 9.87229 19.9291 10.1964Z" fill="#999999"/>
</svg>
