<svg width="106" height="45" viewBox="0 0 106 45" fill="none" xmlns="http://www.w3.org/2000/svg">
<g clip-path="url(#clip0_532_12905)">
<rect x="0.0449219" y="0.0576172" width="13.1392" height="44.3945" rx="6.56958" fill="#3F49F3"/>
<rect x="23.1387" y="0.198242" width="13.1392" height="44.3945" rx="6.56958" fill="#3F49F3"/>
<rect x="39.8613" width="13.1392" height="18.7134" rx="6.56958" fill="#3F49F3"/>
<rect x="39.8613" y="23.0928" width="13.1392" height="21.3014" rx="6.56958" fill="#797EFC"/>
<path d="M1.28371 10.5924C-0.873285 7.66444 -0.248278 3.54226 2.6797 1.38527C5.60767 -0.771721 9.72985 -0.146716 11.8868 2.78126L34.9614 34.1034C37.1184 37.0313 36.4933 41.1535 33.5654 43.3105C30.6374 45.4675 26.5152 44.8425 24.3582 41.9145L1.28371 10.5924Z" fill="#797EFC"/>
<path d="M65.9759 39.7794C65.5071 39.7794 65.1046 39.6137 64.7685 39.2822C64.437 38.9461 64.2713 38.5436 64.2713 38.0748C64.2713 37.6108 64.437 37.2131 64.7685 36.8817C65.1046 36.5502 65.5071 36.3845 65.9759 36.3845C66.4304 36.3845 66.8281 36.5502 67.169 36.8817C67.5099 37.2131 67.6804 37.6108 67.6804 38.0748C67.6804 38.3873 67.5999 38.6738 67.4389 38.9342C67.2827 39.1899 67.0767 39.3959 66.821 39.5521C66.5653 39.7036 66.2836 39.7794 65.9759 39.7794ZM78.1119 29.2325C78.055 28.6596 77.8112 28.2145 77.3803 27.8973C76.9495 27.58 76.3647 27.4214 75.6261 27.4214C75.1242 27.4214 74.7004 27.4925 74.3548 27.6345C74.0091 27.7718 73.744 27.9636 73.5593 28.2098C73.3794 28.456 73.2894 28.7354 73.2894 29.0479C73.2799 29.3083 73.3344 29.5355 73.4528 29.7297C73.5759 29.9238 73.744 30.0919 73.957 30.2339C74.1701 30.3712 74.4163 30.492 74.6957 30.5961C74.975 30.6956 75.2733 30.7808 75.5906 30.8518L76.8974 31.1643C77.5318 31.3064 78.1142 31.4958 78.6445 31.7325C79.1748 31.9693 79.6341 32.2604 80.0224 32.6061C80.4106 32.9517 80.7113 33.3589 80.9244 33.8277C81.1422 34.2964 81.2534 34.8338 81.2582 35.4399C81.2534 36.33 81.0262 37.1018 80.5763 37.7552C80.1313 38.4039 79.4873 38.9082 78.6445 39.268C77.8065 39.6231 76.7956 39.8007 75.6119 39.8007C74.4376 39.8007 73.4149 39.6208 72.5437 39.2609C71.6772 38.9011 71.0001 38.3684 70.5124 37.6629C70.0295 36.9527 69.7762 36.0744 69.7525 35.028H72.7283C72.7615 35.5157 72.9012 35.9229 73.1474 36.2496C73.3983 36.5715 73.7321 36.8154 74.1488 36.9811C74.5702 37.1421 75.046 37.2226 75.5763 37.2226C76.0972 37.2226 76.5494 37.1468 76.9329 36.9953C77.3211 36.8438 77.6218 36.6331 77.8349 36.3632C78.0479 36.0933 78.1545 35.7832 78.1545 35.4328C78.1545 35.1061 78.0574 34.8315 77.8633 34.6089C77.6739 34.3864 77.3945 34.197 77.0252 34.0407C76.6606 33.8845 76.2132 33.7425 75.6829 33.6146L74.0991 33.2169C72.8728 32.9186 71.9045 32.4522 71.1942 31.8177C70.484 31.1833 70.1313 30.3286 70.136 29.2538C70.1313 28.3731 70.3656 27.6037 70.8391 26.9456C71.3174 26.2874 71.9731 25.7737 72.8065 25.4044C73.6398 25.0351 74.5868 24.8504 75.6474 24.8504C76.7269 24.8504 77.6692 25.0351 78.4741 25.4044C79.2837 25.7737 79.9135 26.2874 80.3633 26.9456C80.8131 27.6037 81.0451 28.366 81.0593 29.2325H78.1119ZM85.1378 43.6856C84.7543 43.6856 84.3944 43.6549 84.0582 43.5933C83.7268 43.5365 83.4522 43.4631 83.2344 43.3731L83.9162 41.1146C84.2713 41.2235 84.5909 41.2827 84.875 41.2922C85.1638 41.3016 85.4124 41.2354 85.6207 41.0933C85.8338 40.9513 86.0066 40.7098 86.1392 40.3689L86.3168 39.9072L82.4034 28.6856H85.5852L87.8438 36.697H87.9574L90.2372 28.6856H93.4403L89.2003 40.7737C88.9967 41.3608 88.7197 41.8722 88.3693 42.3078C88.0237 42.7481 87.5857 43.0867 87.0554 43.3234C86.5251 43.5649 85.8859 43.6856 85.1378 43.6856ZM104.065 31.7964L101.295 31.9669C101.248 31.7301 101.146 31.5171 100.99 31.3277C100.834 31.1336 100.628 30.9797 100.372 30.866C100.121 30.7477 99.8205 30.6885 99.4702 30.6885C99.0014 30.6885 98.6061 30.7879 98.2841 30.9868C97.9621 31.1809 97.8011 31.4413 97.8011 31.768C97.8011 32.0284 97.9053 32.2486 98.1136 32.4285C98.322 32.6085 98.6795 32.7529 99.1861 32.8618L101.161 33.2595C102.221 33.4773 103.012 33.8277 103.533 34.3106C104.054 34.7936 104.314 35.4281 104.314 36.214C104.314 36.929 104.103 37.5564 103.682 38.0961C103.265 38.6359 102.692 39.0573 101.963 39.3604C101.239 39.6586 100.403 39.8078 99.456 39.8078C98.0118 39.8078 96.8613 39.5071 96.0043 38.9058C95.152 38.2997 94.6525 37.4759 94.5057 36.4342L97.4815 36.278C97.5715 36.7183 97.7893 37.0545 98.1349 37.2865C98.4806 37.5138 98.9233 37.6274 99.4631 37.6274C99.9934 37.6274 100.42 37.5256 100.741 37.322C101.068 37.1137 101.234 36.8461 101.239 36.5194C101.234 36.2448 101.118 36.0199 100.891 35.8447C100.663 35.6648 100.313 35.5275 99.8395 35.4328L97.9503 35.0564C96.8849 34.8433 96.0919 34.474 95.571 33.9484C95.0549 33.4229 94.7969 32.7529 94.7969 31.9385C94.7969 31.2377 94.9863 30.634 95.3651 30.1274C95.7486 29.6208 96.286 29.2301 96.9773 28.9555C97.6733 28.6809 98.4877 28.5436 99.4205 28.5436C100.798 28.5436 101.883 28.8348 102.673 29.4172C103.469 29.9996 103.933 30.7926 104.065 31.7964Z" fill="#999999"/>
</g>
<defs>
<clipPath id="clip0_532_12905">
<rect width="106" height="45" fill="white"/>
</clipPath>
</defs>
</svg>
